# xmcd
#
# Track frame offsets:
#       150
#       17864
#       34060
#       48849
#       67448
#       85747
#       109871
#       132485
#       147614
#       163725
#       182121
#       196781
#
# Disc length: 2816 seconds
#
# Revision: 0
# Processed by: cddbd v1.5.2PL0 Copyright (c) Steve Scherf et al.
# Submitted via: WaveLab 6.10
#
DISCID=b10afe0c
DTITLE=Fabiana Bense - Teus sonhos pra mim
DYEAR=2009
DGENRE=gospel
TTITLE0=Eis-me aqui
TTITLE1=Minha alegria
TTITLE2=Adorador
TTITLE3=No silêncio
TTITLE4=Quebranta meu coração
TTITLE5=No teu altar
TTITLE6=Pra sempre vou Te amar
TTITLE7=Melhor lugar
TTITLE8=Pra que ficar assim
TTITLE9=Um toque
TTITLE10=Teu rio
TTITLE11=Nome Santo (Pai Nosso)
EXTD=
EXTT0=
EXTT1=
EXTT2=
EXTT3=
EXTT4=
EXTT5=
EXTT6=
EXTT7=
EXTT8=
EXTT9=
EXTT10=
EXTT11=
PLAYORDER=
